<?xml version="1.0" encoding="UTF-8" standalone="no"?>
<svg
   xmlns:dc="http://purl.org/dc/elements/1.1/"
   xmlns:cc="http://creativecommons.org/ns#"
   xmlns:rdf="http://www.w3.org/1999/02/22-rdf-syntax-ns#"
   xmlns:svg="http://www.w3.org/2000/svg"
   xmlns="http://www.w3.org/2000/svg"
   version="1.1"
   id="svg815"
   width="48.960003"
   height="29.401413"
   viewBox="0 0 48.960003 29.401413">
  <metadata
     id="metadata821">
    <rdf:RDF>
      <cc:Work
         rdf:about="">
        <dc:format>image/svg+xml</dc:format>
        <dc:type
           rdf:resource="http://purl.org/dc/dcmitype/StillImage" />
        <dc:title></dc:title>
      </cc:Work>
    </rdf:RDF>
  </metadata>
  <defs
     id="defs819" />
  <path
     d="M 0,25.538991 V 3.8511578 H 2.01753 V 25.538991 H 0 m 2.850575,3.862422 H 2.551199 C 1.142257,29.401413 0,27.968455 0,26.200324 v -0.661333 h 2.01753 v 0.981485 c 0.0024,0.884983 0.574154,1.599169 1.2756,1.593463 h 0.611767 v 1.287474 z m 0,-29.41267739 H 2.5512 C 1.142257,-0.01126439 0,1.4216942 0,3.1898253 V 3.8511578 H 2.01753 V 2.8696734 C 2.01993,1.9846905 2.591684,1.270504 3.29313,1.2762097 h 0.611767 v -1.28747409 z"
     style="fill:#000000;stroke:none;stroke-width:0.03820764px;stroke-linecap:butt;stroke-linejoin:miter;stroke-opacity:1"
     id="path1993" />
  <path
     d="M 48.960003,25.544623 V 3.85679 h -2.01753 v 21.687833 h 2.01753 m -2.850575,3.862422 h 0.299376 c 1.408942,0 2.551199,-1.432958 2.551199,-3.201089 v -0.661333 h -2.01753 v 0.981485 c -0.0024,0.884983 -0.574154,1.599169 -1.2756,1.593463 h -0.611767 v 1.287474 z m 0,-29.41267702 h 0.299376 c 1.408942,0 2.551199,1.43295902 2.551199,3.20109002 V 3.85679 h -2.01753 V 2.875306 c -0.0024,-0.884983 -0.574154,-1.599169 -1.2756,-1.593464 h -0.611767 v -1.28747402 z"
     style="fill:#000000;stroke:none;stroke-width:0.03820764px;stroke-linecap:butt;stroke-linejoin:miter;stroke-opacity:1"
     id="path1993-6" />
</svg>
